<svg width="78" height="40" viewBox="0 0 78 40" fill="none" xmlns="http://www.w3.org/2000/svg">
<g clip-path="url(#clip0_1901_158208)">
<rect width="78" height="40" rx="16" fill="#42454A"/>
<path d="M19.5681 12.7051V14.0438H26.6889V12.7051H19.5681Z" fill="#F2F3F7"/>
<path d="M21.6189 21.25V17.1912C21.6189 16.5503 22.1221 16.2299 23.1285 16.2299C24.1349 16.2299 24.6381 16.5503 24.6381 17.1912V21.25H26.6889V17.1912C26.6889 15.6578 25.5021 14.8912 23.1285 14.8912C20.7549 14.8912 19.5681 15.6578 19.5681 17.1912V21.25H21.6189Z" fill="#F2F3F7"/>
<path fill-rule="evenodd" clip-rule="evenodd" d="M18.5 10C17.1193 10 16 11.1193 16 12.5V21.25C16 22.6307 17.1193 23.75 18.5 23.75H22.25V27.5C22.25 28.8807 23.3693 30 24.75 30H33.5C34.8807 30 36 28.8807 36 27.5V18.75C36 17.3693 34.8807 16.25 33.5 16.25H29.75V12.5C29.75 11.1193 28.6307 10 27.25 10H18.5ZM27.25 11.25H18.5C17.8096 11.25 17.25 11.8096 17.25 12.5V21.25C17.25 21.9404 17.8096 22.5 18.5 22.5H27.25C27.9404 22.5 28.5 21.9404 28.5 21.25V12.5C28.5 11.8096 27.9404 11.25 27.25 11.25ZM24.75 27.5L26.0681 23.75H27.25C27.4947 23.75 27.7313 23.7148 27.9548 23.6493L27.9116 23.7891H30.2371L29.6569 21.9282C29.7176 21.7125 29.75 21.4851 29.75 21.25V18.54H30.2126L33.3743 27.5H31.3357L30.6887 25.376H27.4355L26.7886 27.5H24.75Z" fill="#F2F3F7"/>
<path d="M46.1 15.9C45.6613 15.9 45.316 15.802 45.064 15.606C44.812 15.4007 44.686 15.1347 44.686 14.808C44.686 14.64 44.714 14.4767 44.77 14.318H45.722C45.6753 14.43 45.652 14.542 45.652 14.654C45.652 14.766 45.6893 14.8547 45.764 14.92C45.8387 14.9853 45.9367 15.018 46.058 15.018C46.226 15.018 46.3567 14.9573 46.45 14.836C46.5433 14.7147 46.59 14.542 46.59 14.318C46.59 14.038 46.5153 13.8233 46.366 13.674C46.2167 13.5247 45.974 13.45 45.638 13.45H44.854V12.4H45.806C46.4687 12.4 46.9493 12.5587 47.248 12.876C47.556 13.184 47.71 13.6227 47.71 14.192C47.71 14.7707 47.5653 15.2 47.276 15.48C46.9867 15.76 46.5947 15.9 46.1 15.9ZM46.548 25.084C46.1467 25.084 45.848 25.0187 45.652 24.888C45.4653 24.7573 45.372 24.5567 45.372 24.286V19.316C45.372 19.1013 45.3253 18.938 45.232 18.826C45.148 18.714 45.0313 18.616 44.882 18.532V17.832C44.882 17.4307 44.98 17.132 45.176 16.936C45.372 16.7307 45.666 16.628 46.058 16.628H47.262V17.846H46.422C46.2353 17.846 46.142 17.944 46.142 18.14V18.266C46.3753 18.3687 46.5527 18.4993 46.674 18.658C46.7953 18.8167 46.856 19.0453 46.856 19.344V22.984L46.45 22.536H46.646C47.038 22.536 47.346 22.6387 47.57 22.844C47.794 23.04 47.906 23.3573 47.906 23.796C47.906 24.6547 47.4533 25.084 46.548 25.084ZM46.674 24.384C46.9913 24.384 47.15 24.1927 47.15 23.81C47.15 23.4273 46.9913 23.236 46.674 23.236V24.384ZM52.601 25.14C51.649 25.14 50.9164 24.93 50.403 24.51C49.8897 24.09 49.633 23.5207 49.633 22.802V21.248C50.3237 21.164 50.949 21.0753 51.509 20.982C52.0784 20.8887 52.5637 20.7673 52.965 20.618C53.3757 20.4687 53.693 20.268 53.917 20.016C54.141 19.764 54.253 19.442 54.253 19.05C54.253 18.5927 54.1037 18.2427 53.805 18C53.5064 17.748 53.091 17.622 52.559 17.622C52.111 17.622 51.7424 17.7153 51.453 17.902C51.173 18.0887 51.033 18.35 51.033 18.686C51.033 18.882 51.0844 19.0407 51.187 19.162C51.2897 19.274 51.4297 19.33 51.607 19.33C51.7004 19.33 51.7937 19.3207 51.887 19.302C51.9897 19.274 52.0737 19.246 52.139 19.218V20.156C52.055 20.184 51.943 20.2167 51.803 20.254C51.663 20.282 51.495 20.296 51.299 20.296C50.7764 20.296 50.3517 20.1513 50.025 19.862C49.7077 19.5727 49.549 19.1667 49.549 18.644C49.549 17.972 49.8197 17.4447 50.361 17.062C50.9117 16.6793 51.649 16.488 52.573 16.488C53.525 16.488 54.2904 16.6933 54.869 17.104C55.457 17.5147 55.751 18.126 55.751 18.938C55.751 19.5073 55.6157 19.9833 55.345 20.366C55.0744 20.7393 54.7104 21.0427 54.253 21.276C53.7957 21.5093 53.2917 21.6913 52.741 21.822C52.1997 21.9527 51.6584 22.0507 51.117 22.116V22.788C51.117 23.1707 51.2524 23.4693 51.523 23.684C51.7937 23.8987 52.1577 24.006 52.615 24.006C53.063 24.006 53.4224 23.908 53.693 23.712C53.9637 23.516 54.099 23.25 54.099 22.914C54.099 22.6713 54.0197 22.4333 53.861 22.2L55.219 21.766C55.3217 21.9433 55.401 22.1347 55.457 22.34C55.5224 22.5453 55.555 22.7693 55.555 23.012C55.555 23.656 55.289 24.174 54.757 24.566C54.2344 24.9487 53.5157 25.14 52.601 25.14ZM54.5406 28.668C54.1859 28.668 53.9246 28.6073 53.7566 28.486C53.5792 28.374 53.4906 28.206 53.4906 27.982V25.784H54.8626V26.932L54.4986 26.75H54.7366C55.0072 26.75 55.2312 26.8247 55.4086 26.974C55.5766 27.1327 55.6606 27.366 55.6606 27.674C55.6606 28.0007 55.5719 28.248 55.3946 28.416C55.2172 28.584 54.9326 28.668 54.5406 28.668ZM54.6806 28.108C54.7926 28.108 54.8859 28.0707 54.9606 27.996C55.0259 27.9213 55.0586 27.8233 55.0586 27.702C55.0586 27.5713 55.0259 27.4687 54.9606 27.394C54.8859 27.3287 54.7926 27.296 54.6806 27.296V28.108ZM51.6146 28.29C51.2319 28.29 50.8912 28.2527 50.5926 28.178C50.2846 28.1033 50.0046 28.0007 49.7526 27.87L50.0466 26.89C50.2426 27.002 50.4806 27.1 50.7606 27.184C51.0312 27.2773 51.3392 27.324 51.6846 27.324C51.9179 27.324 52.1699 27.2913 52.4406 27.226C52.7019 27.17 52.9492 27.1047 53.1826 27.03C53.4066 26.9647 53.5886 26.918 53.7286 26.89V27.786C53.6166 27.8233 53.4532 27.8793 53.2386 27.954C53.0239 28.038 52.7766 28.1127 52.4966 28.178C52.2166 28.2527 51.9226 28.29 51.6146 28.29ZM58.9119 25.084C58.4545 25.084 58.1139 24.9813 57.8899 24.776C57.6659 24.5707 57.5539 24.2627 57.5539 23.852C57.5539 23.4413 57.6612 23.138 57.8759 22.942C58.0905 22.746 58.3892 22.648 58.7719 22.648H58.9539L58.6039 23.068V19.4C58.6039 19.176 58.5339 19.0033 58.3939 18.882C58.2539 18.7607 58.0579 18.658 57.8059 18.574V17.832C57.8059 17.4307 57.9039 17.132 58.0999 16.936C58.2959 16.7307 58.5899 16.628 58.9819 16.628H60.1999V17.846H59.3459C59.1592 17.846 59.0659 17.944 59.0659 18.14V18.266C59.4112 18.3593 59.6679 18.4993 59.8359 18.686C60.0039 18.8727 60.0879 19.12 60.0879 19.428V24.286C60.0879 24.818 59.6959 25.084 58.9119 25.084ZM58.8139 23.334C58.4965 23.334 58.3379 23.5113 58.3379 23.866C58.3379 24.2113 58.4965 24.384 58.8139 24.384V23.334Z" fill="#F2F3F7"/>
</g>
<defs>
<clipPath id="clip0_1901_158208">
<rect width="78" height="40" fill="white"/>
</clipPath>
</defs>
</svg>
